<svg width="73" height="208" viewBox="0 0 73 208" fill="none" xmlns="http://www.w3.org/2000/svg">
<g filter="url(#filter0_d_5_250)">
<path d="M7.72 13.084C7.136 13.084 6.608 12.984 6.136 12.784C5.672 12.584 5.304 12.296 5.032 11.92C4.76 11.544 4.62 11.1 4.612 10.588H6.412C6.436 10.932 6.556 11.204 6.772 11.404C6.996 11.604 7.3 11.704 7.684 11.704C8.076 11.704 8.384 11.612 8.608 11.428C8.832 11.236 8.944 10.988 8.944 10.684C8.944 10.436 8.868 10.232 8.716 10.072C8.564 9.912 8.372 9.788 8.14 9.7C7.916 9.604 7.604 9.5 7.204 9.388C6.66 9.228 6.216 9.072 5.872 8.92C5.536 8.76 5.244 8.524 4.996 8.212C4.756 7.892 4.636 7.468 4.636 6.94C4.636 6.444 4.76 6.012 5.008 5.644C5.256 5.276 5.604 4.996 6.052 4.804C6.5 4.604 7.012 4.504 7.588 4.504C8.452 4.504 9.152 4.716 9.688 5.14C10.232 5.556 10.532 6.14 10.588 6.892H8.74C8.724 6.604 8.6 6.368 8.368 6.184C8.144 5.992 7.844 5.896 7.468 5.896C7.14 5.896 6.876 5.98 6.676 6.148C6.484 6.316 6.388 6.56 6.388 6.88C6.388 7.104 6.46 7.292 6.604 7.444C6.756 7.588 6.94 7.708 7.156 7.804C7.38 7.892 7.692 7.996 8.092 8.116C8.636 8.276 9.08 8.436 9.424 8.596C9.768 8.756 10.064 8.996 10.312 9.316C10.56 9.636 10.684 10.056 10.684 10.576C10.684 11.024 10.568 11.44 10.336 11.824C10.104 12.208 9.764 12.516 9.316 12.748C8.868 12.972 8.336 13.084 7.72 13.084ZM11.7085 9.652C11.7085 8.98 11.8405 8.384 12.1045 7.864C12.3765 7.344 12.7405 6.944 13.1965 6.664C13.6605 6.384 14.1765 6.244 14.7445 6.244C15.2405 6.244 15.6725 6.344 16.0405 6.544C16.4165 6.744 16.7165 6.996 16.9405 7.3V6.352H18.6325V13H16.9405V12.028C16.7245 12.34 16.4245 12.6 16.0405 12.808C15.6645 13.008 15.2285 13.108 14.7325 13.108C14.1725 13.108 13.6605 12.964 13.1965 12.676C12.7405 12.388 12.3765 11.984 12.1045 11.464C11.8405 10.936 11.7085 10.332 11.7085 9.652ZM16.9405 9.676C16.9405 9.268 16.8605 8.92 16.7005 8.632C16.5405 8.336 16.3245 8.112 16.0525 7.96C15.7805 7.8 15.4885 7.72 15.1765 7.72C14.8645 7.72 14.5765 7.796 14.3125 7.948C14.0485 8.1 13.8325 8.324 13.6645 8.62C13.5045 8.908 13.4245 9.252 13.4245 9.652C13.4245 10.052 13.5045 10.404 13.6645 10.708C13.8325 11.004 14.0485 11.232 14.3125 11.392C14.5845 11.552 14.8725 11.632 15.1765 11.632C15.4885 11.632 15.7805 11.556 16.0525 11.404C16.3245 11.244 16.5405 11.02 16.7005 10.732C16.8605 10.436 16.9405 10.084 16.9405 9.676ZM22.2293 7.732V10.948C22.2293 11.172 22.2813 11.336 22.3853 11.44C22.4973 11.536 22.6813 11.584 22.9373 11.584H23.7173V13H22.6613C21.2453 13 20.5373 12.312 20.5373 10.936V7.732H19.7453V6.352H20.5373V4.708H22.2293V6.352H23.7173V7.732H22.2293ZM31.2017 6.352V13H29.5097V12.16C29.2937 12.448 29.0097 12.676 28.6577 12.844C28.3137 13.004 27.9377 13.084 27.5297 13.084C27.0097 13.084 26.5497 12.976 26.1497 12.76C25.7497 12.536 25.4337 12.212 25.2017 11.788C24.9777 11.356 24.8657 10.844 24.8657 10.252V6.352H26.5457V10.012C26.5457 10.54 26.6777 10.948 26.9417 11.236C27.2057 11.516 27.5657 11.656 28.0217 11.656C28.4857 11.656 28.8497 11.516 29.1137 11.236C29.3777 10.948 29.5097 10.54 29.5097 10.012V6.352H31.2017ZM34.5393 7.384C34.7553 7.032 35.0353 6.756 35.3793 6.556C35.7313 6.356 36.1313 6.256 36.5793 6.256V8.02H36.1353C35.6073 8.02 35.2073 8.144 34.9353 8.392C34.6713 8.64 34.5393 9.072 34.5393 9.688V13H32.8593V6.352H34.5393V7.384ZM37.2788 9.652C37.2788 8.98 37.4108 8.384 37.6748 7.864C37.9468 7.344 38.3108 6.944 38.7668 6.664C39.2308 6.384 39.7468 6.244 40.3148 6.244C40.8108 6.244 41.2428 6.344 41.6108 6.544C41.9868 6.744 42.2868 6.996 42.5108 7.3V6.352H44.2028V13H42.5108V12.028C42.2948 12.34 41.9948 12.6 41.6108 12.808C41.2348 13.008 40.7988 13.108 40.3028 13.108C39.7428 13.108 39.2308 12.964 38.7668 12.676C38.3108 12.388 37.9468 11.984 37.6748 11.464C37.4108 10.936 37.2788 10.332 37.2788 9.652ZM42.5108 9.676C42.5108 9.268 42.4308 8.92 42.2708 8.632C42.1108 8.336 41.8948 8.112 41.6228 7.96C41.3508 7.8 41.0588 7.72 40.7468 7.72C40.4348 7.72 40.1468 7.796 39.8828 7.948C39.6188 8.1 39.4028 8.324 39.2348 8.62C39.0748 8.908 38.9948 9.252 38.9948 9.652C38.9948 10.052 39.0748 10.404 39.2348 10.708C39.4028 11.004 39.6188 11.232 39.8828 11.392C40.1548 11.552 40.4428 11.632 40.7468 11.632C41.0588 11.632 41.3508 11.556 41.6228 11.404C41.8948 11.244 42.1108 11.02 42.2708 10.732C42.4308 10.436 42.5108 10.084 42.5108 9.676ZM47.7996 7.732V10.948C47.7996 11.172 47.8516 11.336 47.9556 11.44C48.0676 11.536 48.2516 11.584 48.5076 11.584H49.2876V13H48.2316C46.8156 13 46.1076 12.312 46.1076 10.936V7.732H45.3156V6.352H46.1076V4.708H47.7996V6.352H49.2876V7.732H47.7996ZM51.348 5.56C51.052 5.56 50.804 5.468 50.604 5.284C50.412 5.092 50.316 4.856 50.316 4.576C50.316 4.296 50.412 4.064 50.604 3.88C50.804 3.688 51.052 3.592 51.348 3.592C51.644 3.592 51.888 3.688 52.08 3.88C52.28 4.064 52.38 4.296 52.38 4.576C52.38 4.856 52.28 5.092 52.08 5.284C51.888 5.468 51.644 5.56 51.348 5.56ZM52.176 6.352V13H50.496V6.352H52.176ZM56.7878 13.108C56.1478 13.108 55.5718 12.968 55.0598 12.688C54.5478 12.4 54.1438 11.996 53.8478 11.476C53.5598 10.956 53.4158 10.356 53.4158 9.676C53.4158 8.996 53.5638 8.396 53.8598 7.876C54.1638 7.356 54.5758 6.956 55.0958 6.676C55.6158 6.388 56.1958 6.244 56.8358 6.244C57.4758 6.244 58.0558 6.388 58.5758 6.676C59.0958 6.956 59.5038 7.356 59.7998 7.876C60.1038 8.396 60.2558 8.996 60.2558 9.676C60.2558 10.356 60.0998 10.956 59.7878 11.476C59.4838 11.996 59.0678 12.4 58.5398 12.688C58.0198 12.968 57.4358 13.108 56.7878 13.108ZM56.7878 11.644C57.0918 11.644 57.3758 11.572 57.6398 11.428C57.9118 11.276 58.1278 11.052 58.2878 10.756C58.4478 10.46 58.5278 10.1 58.5278 9.676C58.5278 9.044 58.3598 8.56 58.0238 8.224C57.6958 7.88 57.2918 7.708 56.8118 7.708C56.3318 7.708 55.9278 7.88 55.5998 8.224C55.2798 8.56 55.1198 9.044 55.1198 9.676C55.1198 10.308 55.2758 10.796 55.5878 11.14C55.9078 11.476 56.3078 11.644 56.7878 11.644ZM65.1722 6.256C65.9642 6.256 66.6042 6.508 67.0922 7.012C67.5802 7.508 67.8242 8.204 67.8242 9.1V13H66.1442V9.328C66.1442 8.8 66.0122 8.396 65.7482 8.116C65.4842 7.828 65.1242 7.684 64.6682 7.684C64.2042 7.684 63.8362 7.828 63.5642 8.116C63.3002 8.396 63.1682 8.8 63.1682 9.328V13H61.4882V6.352H63.1682V7.18C63.3922 6.892 63.6762 6.668 64.0202 6.508C64.3722 6.34 64.7562 6.256 65.1722 6.256Z" fill="white"/>
<path d="M22.04 23.5V22.252H24.536V31H23.156V23.5H22.04ZM26.4153 26.512C26.4153 25.128 26.6473 24.048 27.1113 23.272C27.5833 22.488 28.3913 22.096 29.5353 22.096C30.6793 22.096 31.4833 22.488 31.9473 23.272C32.4193 24.048 32.6553 25.128 32.6553 26.512C32.6553 27.912 32.4193 29.008 31.9473 29.8C31.4833 30.584 30.6793 30.976 29.5353 30.976C28.3913 30.976 27.5833 30.584 27.1113 29.8C26.6473 29.008 26.4153 27.912 26.4153 26.512ZM31.3113 26.512C31.3113 25.864 31.2673 25.316 31.1793 24.868C31.0993 24.42 30.9313 24.056 30.6753 23.776C30.4193 23.488 30.0393 23.344 29.5353 23.344C29.0313 23.344 28.6513 23.488 28.3953 23.776C28.1393 24.056 27.9673 24.42 27.8793 24.868C27.7993 25.316 27.7593 25.864 27.7593 26.512C27.7593 27.184 27.7993 27.748 27.8793 28.204C27.9593 28.66 28.1273 29.028 28.3833 29.308C28.6473 29.588 29.0313 29.728 29.5353 29.728C30.0393 29.728 30.4193 29.588 30.6753 29.308C30.9393 29.028 31.1113 28.66 31.1913 28.204C31.2713 27.748 31.3113 27.184 31.3113 26.512ZM34.1028 26.512C34.1028 25.128 34.3348 24.048 34.7988 23.272C35.2708 22.488 36.0788 22.096 37.2228 22.096C38.3668 22.096 39.1708 22.488 39.6348 23.272C40.1068 24.048 40.3428 25.128 40.3428 26.512C40.3428 27.912 40.1068 29.008 39.6348 29.8C39.1708 30.584 38.3668 30.976 37.2228 30.976C36.0788 30.976 35.2708 30.584 34.7988 29.8C34.3348 29.008 34.1028 27.912 34.1028 26.512ZM38.9988 26.512C38.9988 25.864 38.9548 25.316 38.8668 24.868C38.7868 24.42 38.6188 24.056 38.3628 23.776C38.1068 23.488 37.7268 23.344 37.2228 23.344C36.7188 23.344 36.3388 23.488 36.0828 23.776C35.8268 24.056 35.6548 24.42 35.5668 24.868C35.4868 25.316 35.4468 25.864 35.4468 26.512C35.4468 27.184 35.4868 27.748 35.5668 28.204C35.6468 28.66 35.8148 29.028 36.0708 29.308C36.3348 29.588 36.7188 29.728 37.2228 29.728C37.7268 29.728 38.1068 29.588 38.3628 29.308C38.6268 29.028 38.7988 28.66 38.8788 28.204C38.9588 27.748 38.9988 27.184 38.9988 26.512ZM41.5743 24.364C41.5743 23.78 41.7423 23.324 42.0783 22.996C42.4223 22.66 42.8623 22.492 43.3983 22.492C43.9343 22.492 44.3703 22.66 44.7063 22.996C45.0503 23.324 45.2223 23.78 45.2223 24.364C45.2223 24.948 45.0503 25.408 44.7063 25.744C44.3703 26.08 43.9343 26.248 43.3983 26.248C42.8623 26.248 42.4223 26.08 42.0783 25.744C41.7423 25.408 41.5743 24.948 41.5743 24.364ZM48.8943 22.648L44.1063 31H42.7623L47.5503 22.648H48.8943ZM43.3983 23.32C42.8943 23.32 42.6423 23.668 42.6423 24.364C42.6423 25.068 42.8943 25.42 43.3983 25.42C43.6383 25.42 43.8223 25.336 43.9503 25.168C44.0863 24.992 44.1543 24.724 44.1543 24.364C44.1543 23.668 43.9023 23.32 43.3983 23.32ZM46.4583 29.272C46.4583 28.688 46.6263 28.232 46.9623 27.904C47.3063 27.568 47.7463 27.4 48.2823 27.4C48.8103 27.4 49.2423 27.568 49.5783 27.904C49.9223 28.232 50.0943 28.688 50.0943 29.272C50.0943 29.856 49.9223 30.316 49.5783 30.652C49.2423 30.988 48.8103 31.156 48.2823 31.156C47.7463 31.156 47.3063 30.988 46.9623 30.652C46.6263 30.316 46.4583 29.856 46.4583 29.272ZM48.2703 28.228C47.7663 28.228 47.5143 28.576 47.5143 29.272C47.5143 29.968 47.7663 30.316 48.2703 30.316C48.7743 30.316 49.0263 29.968 49.0263 29.272C49.0263 28.576 48.7743 28.228 48.2703 28.228Z" fill="white"/>
<rect x="27.5" y="186" width="150" height="18" rx="5" transform="rotate(-90 27.5 186)" fill="url(#paint0_linear_5_250)"/>
<rect x="28.25" y="185.25" width="148.5" height="16.5" rx="4.25" transform="rotate(-90 28.25 185.25)" stroke="black" stroke-opacity="0.5" stroke-width="1.5"/>
<path d="M28.22 194.512C28.22 193.128 28.452 192.048 28.916 191.272C29.388 190.488 30.196 190.096 31.34 190.096C32.484 190.096 33.288 190.488 33.752 191.272C34.224 192.048 34.46 193.128 34.46 194.512C34.46 195.912 34.224 197.008 33.752 197.8C33.288 198.584 32.484 198.976 31.34 198.976C30.196 198.976 29.388 198.584 28.916 197.8C28.452 197.008 28.22 195.912 28.22 194.512ZM33.116 194.512C33.116 193.864 33.072 193.316 32.984 192.868C32.904 192.42 32.736 192.056 32.48 191.776C32.224 191.488 31.844 191.344 31.34 191.344C30.836 191.344 30.456 191.488 30.2 191.776C29.944 192.056 29.772 192.42 29.684 192.868C29.604 193.316 29.564 193.864 29.564 194.512C29.564 195.184 29.604 195.748 29.684 196.204C29.764 196.66 29.932 197.028 30.188 197.308C30.452 197.588 30.836 197.728 31.34 197.728C31.844 197.728 32.224 197.588 32.48 197.308C32.744 197.028 32.916 196.66 32.996 196.204C33.076 195.748 33.116 195.184 33.116 194.512ZM35.6915 192.364C35.6915 191.78 35.8595 191.324 36.1955 190.996C36.5395 190.66 36.9795 190.492 37.5155 190.492C38.0515 190.492 38.4875 190.66 38.8235 190.996C39.1675 191.324 39.3395 191.78 39.3395 192.364C39.3395 192.948 39.1675 193.408 38.8235 193.744C38.4875 194.08 38.0515 194.248 37.5155 194.248C36.9795 194.248 36.5395 194.08 36.1955 193.744C35.8595 193.408 35.6915 192.948 35.6915 192.364ZM43.0115 190.648L38.2235 199H36.8795L41.6675 190.648H43.0115ZM37.5155 191.32C37.0115 191.32 36.7595 191.668 36.7595 192.364C36.7595 193.068 37.0115 193.42 37.5155 193.42C37.7555 193.42 37.9395 193.336 38.0675 193.168C38.2035 192.992 38.2715 192.724 38.2715 192.364C38.2715 191.668 38.0195 191.32 37.5155 191.32ZM40.5755 197.272C40.5755 196.688 40.7435 196.232 41.0795 195.904C41.4235 195.568 41.8635 195.4 42.3995 195.4C42.9275 195.4 43.3595 195.568 43.6955 195.904C44.0395 196.232 44.2115 196.688 44.2115 197.272C44.2115 197.856 44.0395 198.316 43.6955 198.652C43.3595 198.988 42.9275 199.156 42.3995 199.156C41.8635 199.156 41.4235 198.988 41.0795 198.652C40.7435 198.316 40.5755 197.856 40.5755 197.272ZM42.3875 196.228C41.8835 196.228 41.6315 196.576 41.6315 197.272C41.6315 197.968 41.8835 198.316 42.3875 198.316C42.8915 198.316 43.1435 197.968 43.1435 197.272C43.1435 196.576 42.8915 196.228 42.3875 196.228Z" fill="white"/>
</g>
<defs>
<filter id="filter0_d_5_250" x="0" y="0" width="73" height="212" filterUnits="userSpaceOnUse" color-interpolation-filters="sRGB">
<feFlood flood-opacity="0" result="BackgroundImageFix"/>
<feColorMatrix in="SourceAlpha" type="matrix" values="0 0 0 0 0 0 0 0 0 0 0 0 0 0 0 0 0 0 127 0" result="hardAlpha"/>
<feOffset dy="4"/>
<feGaussianBlur stdDeviation="2"/>
<feComposite in2="hardAlpha" operator="out"/>
<feColorMatrix type="matrix" values="0 0 0 0 0 0 0 0 0 0 0 0 0 0 0 0 0 0 0.25 0"/>
<feBlend mode="normal" in2="BackgroundImageFix" result="effect1_dropShadow_5_250"/>
<feBlend mode="normal" in="SourceGraphic" in2="effect1_dropShadow_5_250" result="shape"/>
</filter>
<linearGradient id="paint0_linear_5_250" x1="27.5" y1="194.667" x2="177.5" y2="194.667" gradientUnits="userSpaceOnUse">
<stop stop-color="#525252"/>
<stop offset="1" stop-color="#0056B8"/>
</linearGradient>
</defs>
</svg>
